HIERARCHY
ROOT root
{
	OFFSET 0.000000 0.000000 0.000000
	CHANNELS 6 Xposition Yposition Zposition Zrotation Yrotation Xrotation
	JOINT lhip
	{
		OFFSET 0.058581 -0.082280 -0.017664
		CHANNELS 3 Zrotation Yrotation Xrotation
		JOINT lknee
		{
			OFFSET 0.043451 -0.386469 0.008037
			CHANNELS 3 Zrotation Yrotation Xrotation
			JOINT lankle
			{
				OFFSET -0.014790 -0.426874 -0.037428
				CHANNELS 3 Zrotation Yrotation Xrotation
				JOINT ltoe
				{
					OFFSET 0.041054 -0.060286 0.122042
					CHANNELS 3 Zrotation Yrotation Xrotation
					End Site
					{
						OFFSET 0.000000 0.000000 0.000000
					}
				}
			}
		}
	}
	JOINT rhip
	{
		OFFSET -0.060310 -0.090513 -0.013543
		CHANNELS 3 Zrotation Yrotation Xrotation
		JOINT rknee
		{
			OFFSET -0.043257 -0.383688 -0.004843
			CHANNELS 3 Zrotation Yrotation Xrotation
			JOINT rankle
			{
				OFFSET 0.019056 -0.420046 -0.034562
				CHANNELS 3 Zrotation Yrotation Xrotation
				JOINT rtoe
				{
					OFFSET -0.034840 -0.062106 0.130323
					CHANNELS 3 Zrotation Yrotation Xrotation
					End Site
					{
						OFFSET 0.000000 0.000000 0.000000
					}
				}
			}
		}
	}
	JOINT lowerback
	{
		OFFSET 0.004439 0.124404 -0.038385
		CHANNELS 3 Zrotation Yrotation Xrotation
		JOINT upperback
		{
			OFFSET 0.004488 0.137956 0.026820
			CHANNELS 3 Zrotation Yrotation Xrotation
			JOINT chest
			{
				OFFSET -0.002265 0.056032 0.002855
				CHANNELS 3 Zrotation Yrotation Xrotation
				JOINT lowerneck
				{
					OFFSET -0.013390 0.211636 -0.033468
					CHANNELS 3 Zrotation Yrotation Xrotation
					JOINT upperneck
					{
						OFFSET 0.010113 0.088937 0.050410
						CHANNELS 3 Zrotation Yrotation Xrotation
						End Site
						{
							OFFSET 0.000000 0.000000 0.000000
						}
					}
				}
				JOINT lclavicle
				{
					OFFSET 0.071702 0.114000 -0.018898
					CHANNELS 3 Zrotation Yrotation Xrotation
					JOINT lshoulder
					{
						OFFSET 0.122921 0.045205 -0.019046
						CHANNELS 3 Zrotation Yrotation Xrotation
						JOINT lelbow
						{
							OFFSET 0.255332 -0.015649 -0.022946
							CHANNELS 3 Zrotation Yrotation Xrotation
							JOINT lwrist
							{
								OFFSET 0.265709 0.012698 -0.007375
								CHANNELS 3 Zrotation Yrotation Xrotation
								End Site
								{
									OFFSET 0.000000 0.000000 0.000000
								}
							}
						}
					}
				}
				JOINT rclavicle
				{
					OFFSET -0.082954 0.112472 -0.023707
					CHANNELS 3 Zrotation Yrotation Xrotation
					JOINT rshoulder
					{
						OFFSET -0.113228 0.046853 -0.008472
						CHANNELS 3 Zrotation Yrotation Xrotation
						JOINT relbow
						{
							OFFSET -0.260127 -0.014369 -0.031269
							CHANNELS 3 Zrotation Yrotation Xrotation
							JOINT rwrist
							{
								OFFSET -0.269108 0.006794 -0.006027
								CHANNELS 3 Zrotation Yrotation Xrotation
								End Site
								{
									OFFSET 0.000000 0.000000 0.000000
								}
							}
						}
					}
				}
			}
		}
	}
}
MOTION
Frames: 15
Frame Time: 0.033333
-1.975966 0.353154 1.028909 91.059661 0.545594 89.575813 2.431223 2.406956 2.495753 -3.568246 -9.766071 3.346603 2.684811 7.376759 -13.740710 0.000000 -0.000000 0.000000 -4.845873 -4.738271 -5.093155 1.563862 -3.018750 15.036630 6.407058 -7.643655 -9.745133 0.000000 -0.000000 0.000000 -0.638518 -0.018287 8.378107 0.978633 -2.344516 -2.936321 0.554307 -2.016245 2.031707 5.952655 2.772942 -11.852682 1.333291 -4.712119 5.263896 -28.547026 8.086045 -1.141101 -56.479861 -5.998044 7.178487 10.013390 -26.311827 3.919505 0.810292 -3.148883 -1.937539 31.274806 -2.410866 -2.824286 56.265281 3.419301 12.416323 -14.449695 22.205813 -10.355397 3.744464 2.588616 -4.227109 
-1.975366 0.353248 1.028741 91.201229 0.500725 89.599349 2.391605 2.384297 2.570873 -3.565924 -9.854072 3.230028 2.664094 7.348369 -13.698206 0.000000 -0.000000 0.000000 -4.912076 -4.893821 -5.078123 1.300350 -3.218899 14.822218 7.006625 -7.360531 -9.355484 0.000000 -0.000000 0.000000 -0.636472 0.154876 8.333419 0.869696 -2.204856 -2.959868 0.518084 -1.929417 2.135803 5.827622 2.793454 -11.999283 1.622946 -4.509573 5.125840 -28.499488 8.043582 -1.073939 -56.619881 -6.143305 7.282588 9.977905 -26.891518 3.927957 0.964793 -3.173955 -2.186153 31.099583 -2.521283 -2.697633 56.484091 3.357529 12.336153 -14.310406 21.748586 -10.193748 3.824642 2.558934 -4.407497 
-1.975007 0.353332 1.028734 91.306612 0.478981 89.607249 2.312892 2.295690 2.627532 -3.491024 -9.892944 3.121207 2.576639 7.392022 -13.695009 0.000000 -0.000000 0.000000 -4.950661 -4.993426 -5.073215 1.123846 -3.451988 14.889558 7.330856 -7.047140 -9.182711 0.000000 -0.000000 0.000000 -0.567590 0.323051 8.336411 0.743732 -2.035873 -2.873815 0.520123 -1.905157 2.195860 5.875827 2.600286 -12.296746 1.734881 -4.681725 5.039629 -28.682123 7.857674 -1.027278 -56.619991 -6.489654 7.262331 10.137841 -27.652986 3.409698 0.764438 -2.949109 -2.281247 30.997945 -2.427463 -2.636103 56.620123 3.172453 12.222546 -14.398297 21.564081 -10.301773 4.075931 2.405588 -4.272626 
-1.974638 0.353276 1.028825 91.430278 0.470263 89.480267 2.330378 2.341312 2.763246 -3.523352 -9.945595 3.114891 2.647613 7.328193 -13.725097 0.000000 -0.000000 0.000000 -4.972678 -5.054481 -4.888689 1.151618 -3.559823 14.850378 7.103682 -7.172613 -9.385132 0.000000 -0.000000 0.000000 -0.543821 0.429727 8.541119 0.657519 -1.807900 -2.821254 0.488981 -1.807717 2.189535 5.859401 2.602161 -12.374594 1.769681 -4.620801 5.083854 -28.839916 7.538302 -1.020529 -56.708508 -6.839214 7.355166 10.176012 -28.541196 3.174730 1.016704 -3.003487 -2.481030 30.988804 -2.230934 -2.355882 56.634722 2.996738 12.153321 -14.619568 21.481703 -10.403001 3.842920 2.344126 -4.078812 
-1.974299 0.353163 1.028939 91.572801 0.480162 89.495544 2.366975 2.239820 2.779821 -3.516628 -9.849854 3.023128 2.661902 7.251198 -13.640103 0.000000 -0.000000 0.000000 -4.940643 -5.186067 -4.816843 1.085053 -3.618402 14.782432 6.911057 -7.013634 -9.411890 0.000000 -0.000000 0.000000 -0.571343 0.627100 8.475519 0.657809 -1.711990 -2.757226 0.529668 -1.861386 2.179345 5.650895 2.567226 -12.176129 1.867787 -4.507611 4.993985 -28.913927 7.244810 -0.786994 -56.917269 -7.130515 7.475621 10.352245 -29.014730 3.083086 0.987083 -3.030393 -2.465528 30.941078 -2.214255 -2.238353 56.571964 2.963185 12.073688 -14.470312 21.552293 -10.217899 4.349003 2.418224 -4.053349 
-1.974116 0.352904 1.028886 91.584566 0.454533 89.460373 2.350915 2.215632 2.788628 -3.504527 -9.799318 3.064639 2.698067 7.170718 -13.657481 0.000000 -0.000000 0.000000 -4.975353 -5.208474 -4.787460 1.040858 -3.742468 14.878467 6.926943 -6.877474 -9.469049 0.000000 -0.000000 0.000000 -0.600531 0.724004 8.498681 0.599736 -1.641879 -2.588222 0.505176 -1.778484 2.174926 5.725946 2.514276 -12.324290 1.834113 -4.627738 5.114051 -28.888854 7.046541 -0.696559 -57.042519 -7.444565 7.669867 10.200677 -30.065709 3.162609 0.859009 -3.362530 -2.649299 30.881597 -1.969857 -2.146152 56.671635 3.039754 12.083667 -14.594681 21.605945 -10.252221 4.620617 2.637208 -3.971688 
-1.973910 0.352515 1.028875 91.636477 0.422422 89.476769 2.348169 2.133927 2.774258 -3.524220 -9.812304 3.034659 2.638940 7.171800 -13.611337 0.000000 -0.000000 0.000000 -4.958345 -5.090239 -4.758080 1.044790 -3.807426 14.801291 6.700455 -7.080458 -9.542151 0.000000 -0.000000 0.000000 -0.716971 0.720484 8.440054 0.571707 -1.644758 -2.417568 0.537759 -1.717847 2.158243 5.825895 2.487321 -12.395686 2.024039 -4.667245 5.068336 -28.863785 6.767479 -0.607821 -57.305650 -7.729756 7.820915 10.323543 -30.788215 3.000319 0.940660 -3.221055 -2.909618 30.911531 -1.732948 -2.097575 56.685802 3.119521 12.164287 -14.776439 21.964119 -10.193395 4.505000 2.486924 -3.827827 
-1.973923 0.352437 1.029081 91.619217 0.455413 89.492810 2.350992 2.134313 2.742324 -3.449487 -9.684936 3.104963 2.689408 7.092628 -13.632869 0.000000 -0.000000 0.000000 -4.931936 -5.157751 -4.795637 1.003132 -3.865975 14.899182 6.716373 -6.875043 -9.572461 0.000000 -0.000000 0.000000 -0.782628 0.808134 8.612031 0.573629 -1.534521 -2.596527 0.586604 -1.701596 2.173286 5.975517 2.442738 -12.304397 2.050160 -4.778135 5.184481 -28.840425 6.581547 -0.536502 -57.475508 -7.898457 8.145598 10.108642 -31.625032 3.469843 0.943690 -3.775400 -2.814908 30.836665 -1.680080 -2.115071 56.721942 3.111026 12.187652 -14.950325 22.525089 -10.306452 4.672460 2.703097 -4.011890 
-1.973593 0.352176 1.029163 91.700262 0.439618 89.580489 2.343727 2.007649 2.726743 -3.437934 -9.706882 2.999124 2.681320 7.161429 -13.762304 0.000000 -0.000000 0.000000 -4.938851 -5.262045 -4.850122 1.015727 -3.935623 14.990035 6.702943 -6.802794 -9.449920 0.000000 -0.000000 0.000000 -0.911414 0.852348 8.482192 0.624536 -1.606438 -2.575607 0.658243 -1.815492 2.192647 5.932436 2.314121 -12.143517 2.020067 -4.746850 5.095677 -28.855313 6.345817 -0.442777 -57.626836 -7.992433 8.307435 10.152880 -32.413295 3.511684 0.788722 -3.685388 -2.962648 30.666543 -1.588251 -2.069637 56.847149 3.492017 12.202254 -14.885000 23.029773 -10.189881 5.085069 2.908336 -4.072804 
-1.973028 0.352124 1.028971 91.600393 0.470863 89.633669 2.381411 2.042162 2.677364 -3.430869 -9.537745 3.059299 2.724368 7.095394 -13.795990 0.000000 -0.000000 0.000000 -4.891636 -5.151693 -4.841871 1.048546 -3.877278 14.920984 6.789518 -6.906567 -9.443893 0.000000 -0.000000 0.000000 -0.892993 0.753772 8.377879 0.584064 -1.655702 -2.538906 0.540360 -1.762879 2.224029 6.011404 2.564836 -12.400595 2.032290 -4.700358 5.434653 -28.886943 6.290423 -0.494907 -57.527162 -8.192065 8.473469 9.813707 -33.146047 3.702706 1.069801 -3.930846 -2.846779 30.856394 -1.471620 -2.156332 56.827093 3.769805 12.399471 -15.226760 23.676297 -10.348160 4.683700 2.820397 -3.861458 
-1.972919 0.352021 1.028926 91.319068 0.450526 89.711735 2.310903 2.076205 2.702967 -3.331424 -9.428738 2.998156 2.722705 7.165216 -13.734437 0.000000 -0.000000 0.000000 -4.901498 -5.201858 -5.003930 1.065738 -3.667797 15.001732 6.941482 -6.820826 -9.392800 0.000000 -0.000000 0.000000 -1.024441 0.836074 8.318985 0.565117 -1.608839 -2.510645 0.579443 -1.771551 2.194064 6.005995 2.785418 -12.588967 1.917589 -4.541191 5.686372 -28.916614 6.193048 -0.599749 -57.489347 -8.256203 8.583043 9.659082 -33.585412 3.798924 1.160579 -3.997435 -2.869117 30.978980 -1.430527 -2.198622 56.702211 4.085250 12.514132 -15.346678 24.443157 -10.543895 4.638907 2.999227 -3.830894 
-1.972572 0.351816 1.028898 91.232479 0.531455 89.607491 2.449266 2.187086 2.854611 -3.375983 -9.389512 2.967835 2.659537 7.130416 -13.826767 0.000000 -0.000000 0.000000 -4.776812 -4.939127 -4.835761 1.044152 -3.815909 14.903834 6.768992 -6.885567 -9.511566 0.000000 -0.000000 0.000000 -0.994746 0.616364 8.579681 0.538150 -1.680704 -2.641179 0.510516 -1.706557 2.050092 6.015937 2.932821 -12.247047 1.911963 -4.442974 5.986308 -28.832836 6.219446 -0.623182 -57.504493 -8.274643 8.611378 9.595739 -33.759913 3.855258 1.322878 -3.973369 -2.786820 30.970471 -1.344758 -2.274636 56.817369 4.308580 12.635893 -15.368356 24.923040 -10.584009 4.510533 3.124997 -4.050006 
-1.972090 0.351727 1.028704 91.029263 0.534015 89.572454 2.474425 2.192936 2.974680 -3.393032 -9.319858 2.951900 2.662574 7.175692 -13.769351 0.000000 -0.000000 0.000000 -4.786174 -5.003701 -4.823297 1.106978 -3.640492 14.991802 6.413337 -6.940236 -9.667002 0.000000 -0.000000 0.000000 -1.036764 0.643594 8.562377 0.532200 -1.734754 -2.445664 0.498531 -1.747459 1.934219 6.097114 2.962212 -12.282108 1.853523 -4.438266 6.112753 -28.895184 6.051018 -0.610242 -57.422518 -8.329378 8.532683 9.649169 -33.783411 3.637020 1.410097 -3.967097 -2.830645 30.972963 -1.204316 -2.277783 56.813198 4.490812 12.746283 -15.460083 25.700761 -10.557314 4.356222 3.032206 -4.054696 
-1.971931 0.351750 1.028731 90.780513 0.573761 89.512372 2.476537 2.260918 3.069998 -3.337219 -9.220934 2.949623 2.649231 7.288999 -13.801898 0.000000 -0.000000 0.000000 -4.760704 -4.957547 -4.878141 1.084174 -3.624082 15.210893 6.297818 -6.804260 -9.757150 0.000000 -0.000000 0.000000 -0.988194 0.573681 8.683272 0.489987 -1.723134 -2.492855 0.473722 -1.771954 1.871196 6.097792 3.034022 -12.171572 1.715964 -4.413306 6.386968 -28.942386 5.837087 -0.601864 -57.319967 -8.330603 8.456041 9.734755 -33.504242 3.390109 1.392684 -3.880153 -2.577335 30.887276 -1.019393 -2.219090 56.859676 4.640880 12.810335 -15.582044 26.178868 -10.789244 4.409209 3.297245 -4.209445 
-1.971644 0.351522 1.028632 90.429644 0.617941 89.487241 2.578762 2.379915 3.181955 -3.428823 -9.110249 2.897824 2.737772 7.390375 -13.881051 0.000000 -0.000000 0.000000 -4.704231 -4.918628 -4.960360 1.110016 -3.524913 15.325837 6.245741 -6.702409 -9.817972 0.000000 -0.000000 0.000000 -1.000297 0.565677 8.718353 0.485952 -1.696739 -2.489229 0.456141 -1.721088 1.811427 6.130530 3.137700 -11.901300 1.607162 -4.251690 6.560165 -28.899111 5.772774 -0.565578 -57.268721 -8.325433 8.373302 9.833822 -33.287320 3.340872 1.412552 -3.812615 -2.514774 30.930822 -0.956047 -2.208869 56.825196 4.810257 12.859991 -15.647172 26.686222 -10.742618 4.372605 3.272127 -4.117097 
